<mxfile host="app.diagrams.net" agent="Mozilla/5.0 (Windows NT 10.0; Win64; x64) AppleWebKit/537.36 (KHTML, like Gecko) Chrome/134.0.0.0 Safari/537.36 Edg/134.0.0.0/8mqNJauL-25" version="26.1.0">
  <diagram name="CBIR System Architecture" id="S-0bKFMH3jOqiqkQE8cs">
    <mxGraphModel dx="1002" dy="531" grid="1" gridSize="10" guides="1" tooltips="1" connect="1" arrows="1" fold="1" page="1" pageScale="1" pageWidth="827" pageHeight="1169" math="0" shadow="0">
      <root>
        <mxCell id="0" />
        <mxCell id="1" parent="0" />
        <mxCell id="2SeL0Gn1fTy4U4uI-d4s-10" style="edgeStyle=orthogonalEdgeStyle;rounded=0;orthogonalLoop=1;jettySize=auto;html=1;exitX=0.5;exitY=1;exitDx=0;exitDy=0;entryX=0.5;entryY=0;entryDx=0;entryDy=0;strokeWidth=1;fontStyle=0;fontSize=10;" parent="1" source="Cbja1di_zOioqlzYBnRs-15" target="Cbja1di_zOioqlzYBnRs-16" edge="1">
          <mxGeometry relative="1" as="geometry" />
        </mxCell>
        <mxCell id="Cbja1di_zOioqlzYBnRs-15" value="&lt;span style=&quot;text-wrap-mode: nowrap;&quot;&gt;Two-Stream Processing&lt;/span&gt;" style="rounded=0;whiteSpace=wrap;html=1;verticalAlign=top;fontStyle=0;fontSize=10;strokeWidth=1;" parent="1" vertex="1">
          <mxGeometry x="480" y="400.10638297872345" width="307.2100313479624" height="108.7386018237082" as="geometry" />
        </mxCell>
        <mxCell id="2SeL0Gn1fTy4U4uI-d4s-12" style="edgeStyle=orthogonalEdgeStyle;rounded=0;orthogonalLoop=1;jettySize=auto;html=1;exitX=0.5;exitY=1;exitDx=0;exitDy=0;entryX=0.5;entryY=0;entryDx=0;entryDy=0;strokeWidth=1;fontStyle=0;fontSize=10;" parent="1" source="Cbja1di_zOioqlzYBnRs-1" target="Cbja1di_zOioqlzYBnRs-2" edge="1">
          <mxGeometry relative="1" as="geometry" />
        </mxCell>
        <mxCell id="Cbja1di_zOioqlzYBnRs-1" value="Input Image" style="rounded=1;whiteSpace=wrap;html=1;fontStyle=0;fontSize=10;strokeWidth=1;" parent="1" vertex="1">
          <mxGeometry x="567.7742946708464" y="290" width="131.6614420062696" height="27.35562310030396" as="geometry" />
        </mxCell>
        <mxCell id="2SeL0Gn1fTy4U4uI-d4s-11" style="edgeStyle=orthogonalEdgeStyle;rounded=0;orthogonalLoop=1;jettySize=auto;html=1;exitX=0.5;exitY=1;exitDx=0;exitDy=0;entryX=0.5;entryY=0;entryDx=0;entryDy=0;strokeWidth=1;fontStyle=0;fontSize=10;" parent="1" source="Cbja1di_zOioqlzYBnRs-2" target="Cbja1di_zOioqlzYBnRs-15" edge="1">
          <mxGeometry relative="1" as="geometry" />
        </mxCell>
        <mxCell id="Cbja1di_zOioqlzYBnRs-2" value="Image Preprocessing" style="rounded=0;whiteSpace=wrap;html=1;fontStyle=0;fontSize=10;strokeWidth=1;" parent="1" vertex="1">
          <mxGeometry x="567.7742946708464" y="344.7112462006079" width="131.6614420062696" height="27.35562310030396" as="geometry" />
        </mxCell>
        <mxCell id="2SeL0Gn1fTy4U4uI-d4s-5" style="edgeStyle=orthogonalEdgeStyle;rounded=0;orthogonalLoop=1;jettySize=auto;html=1;exitX=0.5;exitY=1;exitDx=0;exitDy=0;entryX=0.5;entryY=0;entryDx=0;entryDy=0;strokeWidth=1;fontStyle=0;fontSize=10;" parent="1" source="Cbja1di_zOioqlzYBnRs-4" target="Cbja1di_zOioqlzYBnRs-6" edge="1">
          <mxGeometry relative="1" as="geometry" />
        </mxCell>
        <mxCell id="Cbja1di_zOioqlzYBnRs-4" value="Local Stream" style="rounded=1;whiteSpace=wrap;html=1;fontStyle=0;fontSize=10;strokeWidth=1;" parent="1" vertex="1">
          <mxGeometry x="490.9717868338558" y="426.7781155015198" width="131.6614420062696" height="27.35562310030396" as="geometry" />
        </mxCell>
        <mxCell id="2SeL0Gn1fTy4U4uI-d4s-6" style="edgeStyle=orthogonalEdgeStyle;rounded=0;orthogonalLoop=1;jettySize=auto;html=1;exitX=0.5;exitY=1;exitDx=0;exitDy=0;entryX=0.5;entryY=0;entryDx=0;entryDy=0;strokeWidth=1;fontStyle=0;fontSize=10;" parent="1" source="Cbja1di_zOioqlzYBnRs-5" target="Cbja1di_zOioqlzYBnRs-7" edge="1">
          <mxGeometry relative="1" as="geometry" />
        </mxCell>
        <mxCell id="Cbja1di_zOioqlzYBnRs-5" value="Semantic Stream" style="rounded=1;whiteSpace=wrap;html=1;fontStyle=0;fontSize=10;strokeWidth=1;" parent="1" vertex="1">
          <mxGeometry x="644.576802507837" y="426.7781155015198" width="131.6614420062696" height="27.35562310030396" as="geometry" />
        </mxCell>
        <mxCell id="Cbja1di_zOioqlzYBnRs-6" value="HOG Descriptor" style="rounded=1;whiteSpace=wrap;html=1;fontStyle=0;fontSize=10;strokeWidth=1;" parent="1" vertex="1">
          <mxGeometry x="490.9717868338558" y="469.8632218844985" width="131.6614420062696" height="27.35562310030396" as="geometry" />
        </mxCell>
        <mxCell id="Cbja1di_zOioqlzYBnRs-7" value="EfficientNet Features" style="rounded=1;whiteSpace=wrap;html=1;fontStyle=0;fontSize=10;strokeWidth=1;" parent="1" vertex="1">
          <mxGeometry x="644.576802507837" y="469.8632218844985" width="131.6614420062696" height="27.35562310030396" as="geometry" />
        </mxCell>
        <mxCell id="Cbja1di_zOioqlzYBnRs-12" value="Retrieved Results" style="rounded=1;whiteSpace=wrap;html=1;fontStyle=0;fontSize=10;strokeWidth=1;" parent="1" vertex="1">
          <mxGeometry x="567.7742946708464" y="646.306990881459" width="131.6614420062696" height="26.67173252279635" as="geometry" />
        </mxCell>
        <mxCell id="2SeL0Gn1fTy4U4uI-d4s-9" style="edgeStyle=orthogonalEdgeStyle;rounded=0;orthogonalLoop=1;jettySize=auto;html=1;exitX=0.5;exitY=1;exitDx=0;exitDy=0;entryX=0.5;entryY=0;entryDx=0;entryDy=0;strokeWidth=1;fontStyle=0;fontSize=10;" parent="1" source="Cbja1di_zOioqlzYBnRs-16" target="Cbja1di_zOioqlzYBnRs-17" edge="1">
          <mxGeometry relative="1" as="geometry" />
        </mxCell>
        <mxCell id="Cbja1di_zOioqlzYBnRs-16" value="&lt;span style=&quot;text-wrap-mode: nowrap;&quot;&gt;Feature Fusion Module&lt;/span&gt;" style="rounded=0;whiteSpace=wrap;html=1;fontStyle=0;fontSize=10;strokeWidth=1;" parent="1" vertex="1">
          <mxGeometry x="523.8871473354232" y="536.8844984802432" width="219.435736677116" height="27.35562310030396" as="geometry" />
        </mxCell>
        <mxCell id="2SeL0Gn1fTy4U4uI-d4s-8" style="edgeStyle=orthogonalEdgeStyle;rounded=0;orthogonalLoop=1;jettySize=auto;html=1;exitX=0.5;exitY=1;exitDx=0;exitDy=0;entryX=0.5;entryY=0;entryDx=0;entryDy=0;strokeWidth=1;fontStyle=0;fontSize=10;" parent="1" source="Cbja1di_zOioqlzYBnRs-17" target="Cbja1di_zOioqlzYBnRs-12" edge="1">
          <mxGeometry relative="1" as="geometry" />
        </mxCell>
        <mxCell id="Cbja1di_zOioqlzYBnRs-17" value="&lt;span style=&quot;text-wrap-mode: nowrap;&quot;&gt;Similarity Measurement&amp;nbsp;&lt;/span&gt;&lt;div&gt;&lt;span style=&quot;text-wrap-mode: nowrap;&quot;&gt;and Ranking&lt;/span&gt;&lt;/div&gt;" style="rounded=0;whiteSpace=wrap;html=1;fontStyle=0;fontSize=10;align=center;strokeWidth=1;" parent="1" vertex="1">
          <mxGeometry x="523.8871473354232" y="591.5957446808511" width="219.435736677116" height="27.35562310030396" as="geometry" />
        </mxCell>
      </root>
    </mxGraphModel>
  </diagram>
</mxfile>
